<mxfile host="app.diagrams.net" modified="2022-09-28T22:34:04.212Z" agent="5.0 (Macintosh; Intel Mac OS X 10_15_7) AppleWebKit/537.36 (KHTML, like Gecko) Chrome/105.0.0.0 Safari/537.36" etag="Bk5bT3ZoqPkSyF6TD7NV" version="20.3.7" type="github">
  <diagram id="R2lEEEUBdFMjLlhIrx00" name="Page-1">
    <mxGraphModel dx="946" dy="646" grid="1" gridSize="3" guides="1" tooltips="1" connect="1" arrows="1" fold="1" page="1" pageScale="1" pageWidth="850" pageHeight="1100" background="none" math="0" shadow="0" extFonts="Permanent Marker^https://fonts.googleapis.com/css?family=Permanent+Marker">
      <root>
        <mxCell id="0" />
        <mxCell id="1" parent="0" />
        <mxCell id="XG8kmVSxOluQT2AAcpYn-24" value="" style="ellipse;whiteSpace=wrap;html=1;" parent="1" vertex="1">
          <mxGeometry x="30" y="303" width="99" height="63" as="geometry" />
        </mxCell>
        <mxCell id="XG8kmVSxOluQT2AAcpYn-10" value="Customer" style="rectangle;whiteSpace=wrap;html=1;" parent="1" vertex="1">
          <mxGeometry x="177" y="210" width="99" height="63" as="geometry" />
        </mxCell>
        <mxCell id="XG8kmVSxOluQT2AAcpYn-12" value="Order" style="rectangle;whiteSpace=wrap;html=1;" parent="1" vertex="1">
          <mxGeometry x="414" y="210" width="99" height="63" as="geometry" />
        </mxCell>
        <mxCell id="XG8kmVSxOluQT2AAcpYn-13" value="Review" style="rectangle;whiteSpace=wrap;html=1;" parent="1" vertex="1">
          <mxGeometry x="414" y="72" width="99" height="63" as="geometry" />
        </mxCell>
        <mxCell id="XG8kmVSxOluQT2AAcpYn-14" value="Employee" style="rectangle;whiteSpace=wrap;html=1;" parent="1" vertex="1">
          <mxGeometry x="696" y="225" width="66" height="48" as="geometry" />
        </mxCell>
        <mxCell id="XG8kmVSxOluQT2AAcpYn-15" value="Product" style="rectangle;whiteSpace=wrap;html=1;" parent="1" vertex="1">
          <mxGeometry x="416" y="357" width="99" height="60" as="geometry" />
        </mxCell>
        <mxCell id="XG8kmVSxOluQT2AAcpYn-16" value="ISA" style="triangle;whiteSpace=wrap;html=1;direction=north;" parent="1" vertex="1">
          <mxGeometry x="337" y="462" width="79" height="47" as="geometry" />
        </mxCell>
        <mxCell id="XG8kmVSxOluQT2AAcpYn-17" value="ISA" style="triangle;whiteSpace=wrap;html=1;direction=north;" parent="1" vertex="1">
          <mxGeometry x="515" y="462" width="79" height="47" as="geometry" />
        </mxCell>
        <mxCell id="XG8kmVSxOluQT2AAcpYn-18" value="Side" style="rectangle;whiteSpace=wrap;html=1;" parent="1" vertex="1">
          <mxGeometry x="327" y="546" width="99" height="63" as="geometry" />
        </mxCell>
        <mxCell id="XG8kmVSxOluQT2AAcpYn-19" value="Pizza" style="rectangle;whiteSpace=wrap;html=1;" parent="1" vertex="1">
          <mxGeometry x="505" y="543" width="99" height="63" as="geometry" />
        </mxCell>
        <mxCell id="XG8kmVSxOluQT2AAcpYn-20" value="&lt;u&gt;phone_no&lt;/u&gt;" style="ellipse;whiteSpace=wrap;html=1;" parent="1" vertex="1">
          <mxGeometry x="39" y="138" width="81" height="42" as="geometry" />
        </mxCell>
        <mxCell id="XG8kmVSxOluQT2AAcpYn-21" value="email" style="ellipse;whiteSpace=wrap;html=1;" parent="1" vertex="1">
          <mxGeometry x="39" y="189" width="81" height="42" as="geometry" />
        </mxCell>
        <mxCell id="XG8kmVSxOluQT2AAcpYn-22" value="name" style="ellipse;whiteSpace=wrap;html=1;" parent="1" vertex="1">
          <mxGeometry x="39" y="246" width="81" height="42" as="geometry" />
        </mxCell>
        <mxCell id="XG8kmVSxOluQT2AAcpYn-23" value="address" style="ellipse;whiteSpace=wrap;html=1;" parent="1" vertex="1">
          <mxGeometry x="39" y="309" width="81" height="51" as="geometry" />
        </mxCell>
        <mxCell id="XG8kmVSxOluQT2AAcpYn-29" value="" style="endArrow=none;html=1;rounded=0;entryX=0;entryY=0.5;entryDx=0;entryDy=0;exitX=1;exitY=0.5;exitDx=0;exitDy=0;" parent="1" source="XG8kmVSxOluQT2AAcpYn-22" target="XG8kmVSxOluQT2AAcpYn-10" edge="1">
          <mxGeometry width="50" height="50" relative="1" as="geometry">
            <mxPoint x="120" y="312" as="sourcePoint" />
            <mxPoint x="116" y="342" as="targetPoint" />
          </mxGeometry>
        </mxCell>
        <mxCell id="XG8kmVSxOluQT2AAcpYn-32" value="" style="endArrow=none;html=1;rounded=0;entryX=0;entryY=0.5;entryDx=0;entryDy=0;exitX=1;exitY=0.5;exitDx=0;exitDy=0;" parent="1" source="XG8kmVSxOluQT2AAcpYn-20" target="XG8kmVSxOluQT2AAcpYn-10" edge="1">
          <mxGeometry width="50" height="50" relative="1" as="geometry">
            <mxPoint x="66" y="392" as="sourcePoint" />
            <mxPoint x="116" y="342" as="targetPoint" />
          </mxGeometry>
        </mxCell>
        <mxCell id="XG8kmVSxOluQT2AAcpYn-33" value="" style="endArrow=none;html=1;rounded=0;entryX=0;entryY=0.5;entryDx=0;entryDy=0;exitX=1;exitY=0.5;exitDx=0;exitDy=0;" parent="1" source="XG8kmVSxOluQT2AAcpYn-21" target="XG8kmVSxOluQT2AAcpYn-10" edge="1">
          <mxGeometry width="50" height="50" relative="1" as="geometry">
            <mxPoint x="66" y="392" as="sourcePoint" />
            <mxPoint x="116" y="342" as="targetPoint" />
          </mxGeometry>
        </mxCell>
        <mxCell id="XG8kmVSxOluQT2AAcpYn-34" value="" style="endArrow=none;html=1;rounded=0;entryX=0;entryY=0.5;entryDx=0;entryDy=0;exitX=1;exitY=0.5;exitDx=0;exitDy=0;" parent="1" source="XG8kmVSxOluQT2AAcpYn-24" target="XG8kmVSxOluQT2AAcpYn-10" edge="1">
          <mxGeometry width="50" height="50" relative="1" as="geometry">
            <mxPoint x="66" y="392" as="sourcePoint" />
            <mxPoint x="116" y="342" as="targetPoint" />
          </mxGeometry>
        </mxCell>
        <mxCell id="XG8kmVSxOluQT2AAcpYn-36" value="places" style="rhombus;whiteSpace=wrap;html=1;" parent="1" vertex="1">
          <mxGeometry x="318" y="222" width="56" height="39" as="geometry" />
        </mxCell>
        <mxCell id="XG8kmVSxOluQT2AAcpYn-37" value="" style="shape=umlActor;verticalLabelPosition=bottom;verticalAlign=top;html=1;outlineConnect=0;" parent="1" vertex="1">
          <mxGeometry x="243" y="192" width="18" height="33" as="geometry" />
        </mxCell>
        <mxCell id="XG8kmVSxOluQT2AAcpYn-38" value="" style="shape=umlActor;verticalLabelPosition=bottom;verticalAlign=top;html=1;outlineConnect=0;" parent="1" vertex="1">
          <mxGeometry x="753" y="195" width="15" height="36" as="geometry" />
        </mxCell>
        <mxCell id="XG8kmVSxOluQT2AAcpYn-39" value="comment" style="ellipse;whiteSpace=wrap;html=1;" parent="1" vertex="1">
          <mxGeometry x="360" y="12" width="81" height="42" as="geometry" />
        </mxCell>
        <mxCell id="XG8kmVSxOluQT2AAcpYn-40" value="score" style="ellipse;whiteSpace=wrap;html=1;" parent="1" vertex="1">
          <mxGeometry x="492" y="12" width="81" height="42" as="geometry" />
        </mxCell>
        <mxCell id="XG8kmVSxOluQT2AAcpYn-41" value="" style="endArrow=none;html=1;rounded=0;entryX=0.5;entryY=1;entryDx=0;entryDy=0;exitX=0.5;exitY=0;exitDx=0;exitDy=0;" parent="1" source="XG8kmVSxOluQT2AAcpYn-13" target="XG8kmVSxOluQT2AAcpYn-40" edge="1">
          <mxGeometry width="50" height="50" relative="1" as="geometry">
            <mxPoint x="366" y="236" as="sourcePoint" />
            <mxPoint x="416" y="186" as="targetPoint" />
          </mxGeometry>
        </mxCell>
        <mxCell id="XG8kmVSxOluQT2AAcpYn-42" value="" style="endArrow=none;html=1;rounded=0;entryX=0.5;entryY=1;entryDx=0;entryDy=0;exitX=0.5;exitY=0;exitDx=0;exitDy=0;" parent="1" source="XG8kmVSxOluQT2AAcpYn-13" target="XG8kmVSxOluQT2AAcpYn-39" edge="1">
          <mxGeometry width="50" height="50" relative="1" as="geometry">
            <mxPoint x="366" y="236" as="sourcePoint" />
            <mxPoint x="416" y="186" as="targetPoint" />
          </mxGeometry>
        </mxCell>
        <mxCell id="XG8kmVSxOluQT2AAcpYn-43" value="" style="endArrow=none;html=1;rounded=0;exitX=1;exitY=0.5;exitDx=0;exitDy=0;entryX=0;entryY=0.5;entryDx=0;entryDy=0;" parent="1" source="XG8kmVSxOluQT2AAcpYn-36" target="XG8kmVSxOluQT2AAcpYn-12" edge="1">
          <mxGeometry width="50" height="50" relative="1" as="geometry">
            <mxPoint x="366" y="273" as="sourcePoint" />
            <mxPoint x="416" y="223" as="targetPoint" />
          </mxGeometry>
        </mxCell>
        <mxCell id="XG8kmVSxOluQT2AAcpYn-45" value="" style="endArrow=none;html=1;rounded=0;exitX=1;exitY=0.5;exitDx=0;exitDy=0;" parent="1" source="XG8kmVSxOluQT2AAcpYn-10" edge="1">
          <mxGeometry width="50" height="50" relative="1" as="geometry">
            <mxPoint x="268" y="292" as="sourcePoint" />
            <mxPoint x="318" y="242" as="targetPoint" />
          </mxGeometry>
        </mxCell>
        <mxCell id="XG8kmVSxOluQT2AAcpYn-46" value="1" style="text;html=1;align=center;verticalAlign=middle;resizable=0;points=[];autosize=1;strokeColor=none;fillColor=none;" parent="1" vertex="1">
          <mxGeometry x="271" y="216" width="27" height="27" as="geometry" />
        </mxCell>
        <mxCell id="XG8kmVSxOluQT2AAcpYn-47" value="M" style="text;html=1;align=center;verticalAlign=middle;resizable=0;points=[];autosize=1;strokeColor=none;fillColor=none;" parent="1" vertex="1">
          <mxGeometry x="380" y="216" width="30" height="27" as="geometry" />
        </mxCell>
        <mxCell id="XG8kmVSxOluQT2AAcpYn-48" value="" style="rhombus;whiteSpace=wrap;html=1;" parent="1" vertex="1">
          <mxGeometry x="424" y="150" width="80" height="36" as="geometry" />
        </mxCell>
        <mxCell id="XG8kmVSxOluQT2AAcpYn-49" value="has a" style="rhombus;whiteSpace=wrap;html=1;" parent="1" vertex="1">
          <mxGeometry x="432.25" y="154" width="62.5" height="28" as="geometry" />
        </mxCell>
        <mxCell id="XG8kmVSxOluQT2AAcpYn-50" value="" style="endArrow=none;html=1;rounded=0;entryX=0.5;entryY=1;entryDx=0;entryDy=0;exitX=0.5;exitY=0;exitDx=0;exitDy=0;" parent="1" source="XG8kmVSxOluQT2AAcpYn-12" target="XG8kmVSxOluQT2AAcpYn-48" edge="1">
          <mxGeometry width="50" height="50" relative="1" as="geometry">
            <mxPoint x="387" y="263" as="sourcePoint" />
            <mxPoint x="437" y="213" as="targetPoint" />
          </mxGeometry>
        </mxCell>
        <mxCell id="XG8kmVSxOluQT2AAcpYn-51" value="" style="endArrow=none;html=1;rounded=0;entryX=0.5;entryY=1;entryDx=0;entryDy=0;exitX=0.5;exitY=0;exitDx=0;exitDy=0;" parent="1" source="XG8kmVSxOluQT2AAcpYn-48" target="XG8kmVSxOluQT2AAcpYn-13" edge="1">
          <mxGeometry width="50" height="50" relative="1" as="geometry">
            <mxPoint x="453" y="212" as="sourcePoint" />
            <mxPoint x="503" y="162" as="targetPoint" />
          </mxGeometry>
        </mxCell>
        <mxCell id="XG8kmVSxOluQT2AAcpYn-52" value="1" style="text;html=1;align=center;verticalAlign=middle;resizable=0;points=[];autosize=1;strokeColor=none;fillColor=none;" parent="1" vertex="1">
          <mxGeometry x="460" y="129" width="27" height="27" as="geometry" />
        </mxCell>
        <mxCell id="XG8kmVSxOluQT2AAcpYn-53" value="1" style="text;html=1;align=center;verticalAlign=middle;resizable=0;points=[];autosize=1;strokeColor=none;fillColor=none;" parent="1" vertex="1">
          <mxGeometry x="460" y="186" width="27" height="27" as="geometry" />
        </mxCell>
        <mxCell id="XG8kmVSxOluQT2AAcpYn-54" value="delivers" style="rhombus;whiteSpace=wrap;html=1;" parent="1" vertex="1">
          <mxGeometry x="564" y="189" width="89" height="54" as="geometry" />
        </mxCell>
        <mxCell id="XG8kmVSxOluQT2AAcpYn-55" value="bakes" style="rhombus;whiteSpace=wrap;html=1;" parent="1" vertex="1">
          <mxGeometry x="563.9999999999998" y="255" width="89" height="54" as="geometry" />
        </mxCell>
        <mxCell id="XG8kmVSxOluQT2AAcpYn-56" value="" style="endArrow=none;html=1;rounded=0;entryX=0;entryY=0.5;entryDx=0;entryDy=0;exitX=1;exitY=0.5;exitDx=0;exitDy=0;" parent="1" source="XG8kmVSxOluQT2AAcpYn-54" target="XG8kmVSxOluQT2AAcpYn-14" edge="1">
          <mxGeometry width="50" height="50" relative="1" as="geometry">
            <mxPoint x="654" y="216" as="sourcePoint" />
            <mxPoint x="644" y="195" as="targetPoint" />
          </mxGeometry>
        </mxCell>
        <mxCell id="XG8kmVSxOluQT2AAcpYn-57" value="" style="endArrow=none;html=1;rounded=0;entryX=0;entryY=0.5;entryDx=0;entryDy=0;exitX=1;exitY=0.5;exitDx=0;exitDy=0;" parent="1" source="XG8kmVSxOluQT2AAcpYn-12" target="XG8kmVSxOluQT2AAcpYn-54" edge="1">
          <mxGeometry width="50" height="50" relative="1" as="geometry">
            <mxPoint x="594" y="245" as="sourcePoint" />
            <mxPoint x="644" y="195" as="targetPoint" />
          </mxGeometry>
        </mxCell>
        <mxCell id="XG8kmVSxOluQT2AAcpYn-58" value="" style="endArrow=none;html=1;rounded=0;entryX=0;entryY=0.5;entryDx=0;entryDy=0;exitX=1;exitY=0.5;exitDx=0;exitDy=0;" parent="1" source="XG8kmVSxOluQT2AAcpYn-55" target="XG8kmVSxOluQT2AAcpYn-14" edge="1">
          <mxGeometry width="50" height="50" relative="1" as="geometry">
            <mxPoint x="594" y="245" as="sourcePoint" />
            <mxPoint x="644" y="195" as="targetPoint" />
          </mxGeometry>
        </mxCell>
        <mxCell id="XG8kmVSxOluQT2AAcpYn-59" value="" style="endArrow=none;html=1;rounded=0;entryX=0;entryY=0.5;entryDx=0;entryDy=0;exitX=1;exitY=0.5;exitDx=0;exitDy=0;" parent="1" source="XG8kmVSxOluQT2AAcpYn-12" target="XG8kmVSxOluQT2AAcpYn-55" edge="1">
          <mxGeometry width="50" height="50" relative="1" as="geometry">
            <mxPoint x="594" y="245" as="sourcePoint" />
            <mxPoint x="644" y="195" as="targetPoint" />
          </mxGeometry>
        </mxCell>
        <mxCell id="XG8kmVSxOluQT2AAcpYn-60" value="1" style="text;html=1;align=center;verticalAlign=middle;resizable=0;points=[];autosize=1;strokeColor=none;fillColor=none;" parent="1" vertex="1">
          <mxGeometry x="678" y="222" width="27" height="27" as="geometry" />
        </mxCell>
        <mxCell id="XG8kmVSxOluQT2AAcpYn-61" value="1" style="text;html=1;align=center;verticalAlign=middle;resizable=0;points=[];autosize=1;strokeColor=none;fillColor=none;" parent="1" vertex="1">
          <mxGeometry x="667" y="231" width="27" height="27" as="geometry" />
        </mxCell>
        <mxCell id="XG8kmVSxOluQT2AAcpYn-62" value="M" style="text;html=1;align=center;verticalAlign=middle;resizable=0;points=[];autosize=1;strokeColor=none;fillColor=none;" parent="1" vertex="1">
          <mxGeometry x="503" y="213" width="30" height="27" as="geometry" />
        </mxCell>
        <mxCell id="XG8kmVSxOluQT2AAcpYn-63" value="M" style="text;html=1;align=center;verticalAlign=middle;resizable=0;points=[];autosize=1;strokeColor=none;fillColor=none;" parent="1" vertex="1">
          <mxGeometry x="517.5" y="231" width="30" height="27" as="geometry" />
        </mxCell>
        <mxCell id="XG8kmVSxOluQT2AAcpYn-64" value="car_make" style="ellipse;whiteSpace=wrap;html=1;" parent="1" vertex="1">
          <mxGeometry x="540" y="138" width="60" height="36" as="geometry" />
        </mxCell>
        <mxCell id="XG8kmVSxOluQT2AAcpYn-65" value="car_color" style="ellipse;whiteSpace=wrap;html=1;" parent="1" vertex="1">
          <mxGeometry x="627" y="138" width="60" height="36" as="geometry" />
        </mxCell>
        <mxCell id="XG8kmVSxOluQT2AAcpYn-66" value="eta" style="ellipse;whiteSpace=wrap;html=1;" parent="1" vertex="1">
          <mxGeometry x="585" y="93" width="60" height="36" as="geometry" />
        </mxCell>
        <mxCell id="XG8kmVSxOluQT2AAcpYn-67" value="" style="endArrow=none;html=1;rounded=0;entryX=0.5;entryY=1;entryDx=0;entryDy=0;exitX=0.5;exitY=0;exitDx=0;exitDy=0;" parent="1" source="XG8kmVSxOluQT2AAcpYn-54" target="XG8kmVSxOluQT2AAcpYn-66" edge="1">
          <mxGeometry width="50" height="50" relative="1" as="geometry">
            <mxPoint x="519" y="233" as="sourcePoint" />
            <mxPoint x="569" y="183" as="targetPoint" />
          </mxGeometry>
        </mxCell>
        <mxCell id="XG8kmVSxOluQT2AAcpYn-68" value="" style="endArrow=none;html=1;rounded=0;entryX=0.5;entryY=1;entryDx=0;entryDy=0;exitX=0.5;exitY=0;exitDx=0;exitDy=0;" parent="1" source="XG8kmVSxOluQT2AAcpYn-54" target="XG8kmVSxOluQT2AAcpYn-65" edge="1">
          <mxGeometry width="50" height="50" relative="1" as="geometry">
            <mxPoint x="519" y="233" as="sourcePoint" />
            <mxPoint x="569" y="183" as="targetPoint" />
          </mxGeometry>
        </mxCell>
        <mxCell id="XG8kmVSxOluQT2AAcpYn-71" value="" style="endArrow=none;html=1;rounded=0;entryX=0.5;entryY=1;entryDx=0;entryDy=0;exitX=0.5;exitY=0;exitDx=0;exitDy=0;" parent="1" source="XG8kmVSxOluQT2AAcpYn-54" target="XG8kmVSxOluQT2AAcpYn-64" edge="1">
          <mxGeometry width="50" height="50" relative="1" as="geometry">
            <mxPoint x="369" y="233" as="sourcePoint" />
            <mxPoint x="419" y="183" as="targetPoint" />
          </mxGeometry>
        </mxCell>
        <mxCell id="XG8kmVSxOluQT2AAcpYn-72" value="start_time" style="ellipse;whiteSpace=wrap;html=1;" parent="1" vertex="1">
          <mxGeometry x="537.5" y="324" width="60" height="36" as="geometry" />
        </mxCell>
        <mxCell id="XG8kmVSxOluQT2AAcpYn-75" value="end_time" style="ellipse;whiteSpace=wrap;html=1;" parent="1" vertex="1">
          <mxGeometry x="619.5" y="324" width="60" height="36" as="geometry" />
        </mxCell>
        <mxCell id="XG8kmVSxOluQT2AAcpYn-76" value="" style="endArrow=none;html=1;rounded=0;entryX=0.5;entryY=1;entryDx=0;entryDy=0;exitX=0.5;exitY=0;exitDx=0;exitDy=0;" parent="1" source="XG8kmVSxOluQT2AAcpYn-72" target="XG8kmVSxOluQT2AAcpYn-55" edge="1">
          <mxGeometry width="50" height="50" relative="1" as="geometry">
            <mxPoint x="525" y="344" as="sourcePoint" />
            <mxPoint x="575" y="294" as="targetPoint" />
          </mxGeometry>
        </mxCell>
        <mxCell id="XG8kmVSxOluQT2AAcpYn-77" value="" style="endArrow=none;html=1;rounded=0;entryX=0.5;entryY=1;entryDx=0;entryDy=0;exitX=0.5;exitY=0;exitDx=0;exitDy=0;" parent="1" source="XG8kmVSxOluQT2AAcpYn-75" target="XG8kmVSxOluQT2AAcpYn-55" edge="1">
          <mxGeometry width="50" height="50" relative="1" as="geometry">
            <mxPoint x="639" y="353" as="sourcePoint" />
            <mxPoint x="689" y="303" as="targetPoint" />
          </mxGeometry>
        </mxCell>
        <mxCell id="XG8kmVSxOluQT2AAcpYn-81" value="&lt;u&gt;emp_id&lt;/u&gt;" style="ellipse;whiteSpace=wrap;html=1;" parent="1" vertex="1">
          <mxGeometry x="780" y="201" width="63" height="39" as="geometry" />
        </mxCell>
        <mxCell id="XG8kmVSxOluQT2AAcpYn-82" value="name" style="ellipse;whiteSpace=wrap;html=1;" parent="1" vertex="1">
          <mxGeometry x="780" y="249" width="63" height="39" as="geometry" />
        </mxCell>
        <mxCell id="XG8kmVSxOluQT2AAcpYn-83" value="has many" style="rhombus;whiteSpace=wrap;html=1;" parent="1" vertex="1">
          <mxGeometry x="423" y="288" width="85" height="45" as="geometry" />
        </mxCell>
        <mxCell id="XG8kmVSxOluQT2AAcpYn-84" value="" style="endArrow=none;html=1;rounded=0;entryX=0.5;entryY=1;entryDx=0;entryDy=0;exitX=0.5;exitY=0;exitDx=0;exitDy=0;" parent="1" source="XG8kmVSxOluQT2AAcpYn-15" target="XG8kmVSxOluQT2AAcpYn-83" edge="1">
          <mxGeometry width="50" height="50" relative="1" as="geometry">
            <mxPoint x="466" y="354" as="sourcePoint" />
            <mxPoint x="512" y="345" as="targetPoint" />
          </mxGeometry>
        </mxCell>
        <mxCell id="XG8kmVSxOluQT2AAcpYn-85" value="" style="endArrow=none;html=1;rounded=0;entryX=0.5;entryY=1;entryDx=0;entryDy=0;exitX=0.5;exitY=0;exitDx=0;exitDy=0;" parent="1" source="XG8kmVSxOluQT2AAcpYn-83" target="XG8kmVSxOluQT2AAcpYn-12" edge="1">
          <mxGeometry width="50" height="50" relative="1" as="geometry">
            <mxPoint x="465" y="288" as="sourcePoint" />
            <mxPoint x="530" y="324" as="targetPoint" />
          </mxGeometry>
        </mxCell>
        <mxCell id="XG8kmVSxOluQT2AAcpYn-86" value="" style="endArrow=none;html=1;rounded=0;entryX=0.5;entryY=1;entryDx=0;entryDy=0;exitX=1;exitY=0.5;exitDx=0;exitDy=0;" parent="1" source="XG8kmVSxOluQT2AAcpYn-16" target="XG8kmVSxOluQT2AAcpYn-15" edge="1">
          <mxGeometry width="50" height="50" relative="1" as="geometry">
            <mxPoint x="456" y="491" as="sourcePoint" />
            <mxPoint x="506" y="441" as="targetPoint" />
          </mxGeometry>
        </mxCell>
        <mxCell id="XG8kmVSxOluQT2AAcpYn-87" value="" style="endArrow=none;html=1;rounded=0;entryX=0;entryY=0.5;entryDx=0;entryDy=0;exitX=0.5;exitY=0;exitDx=0;exitDy=0;" parent="1" source="XG8kmVSxOluQT2AAcpYn-18" target="XG8kmVSxOluQT2AAcpYn-16" edge="1">
          <mxGeometry width="50" height="50" relative="1" as="geometry">
            <mxPoint x="456" y="491" as="sourcePoint" />
            <mxPoint x="506" y="441" as="targetPoint" />
          </mxGeometry>
        </mxCell>
        <mxCell id="XG8kmVSxOluQT2AAcpYn-88" value="" style="endArrow=none;html=1;rounded=0;entryX=0.5;entryY=1;entryDx=0;entryDy=0;exitX=1;exitY=0.5;exitDx=0;exitDy=0;" parent="1" source="XG8kmVSxOluQT2AAcpYn-17" target="XG8kmVSxOluQT2AAcpYn-15" edge="1">
          <mxGeometry width="50" height="50" relative="1" as="geometry">
            <mxPoint x="456" y="557" as="sourcePoint" />
            <mxPoint x="506" y="507" as="targetPoint" />
          </mxGeometry>
        </mxCell>
        <mxCell id="XG8kmVSxOluQT2AAcpYn-89" value="" style="endArrow=none;html=1;rounded=0;entryX=0;entryY=0.5;entryDx=0;entryDy=0;exitX=0.5;exitY=0;exitDx=0;exitDy=0;" parent="1" source="XG8kmVSxOluQT2AAcpYn-19" target="XG8kmVSxOluQT2AAcpYn-17" edge="1">
          <mxGeometry width="50" height="50" relative="1" as="geometry">
            <mxPoint x="456" y="557" as="sourcePoint" />
            <mxPoint x="506" y="507" as="targetPoint" />
          </mxGeometry>
        </mxCell>
        <mxCell id="XG8kmVSxOluQT2AAcpYn-90" value="&lt;u&gt;order_id&lt;/u&gt;" style="ellipse;whiteSpace=wrap;html=1;" parent="1" vertex="1">
          <mxGeometry x="312" y="282" width="60" height="36" as="geometry" />
        </mxCell>
        <mxCell id="XG8kmVSxOluQT2AAcpYn-91" value="total_price" style="ellipse;whiteSpace=wrap;html=1;" parent="1" vertex="1">
          <mxGeometry x="312" y="324" width="60" height="36" as="geometry" />
        </mxCell>
        <mxCell id="XG8kmVSxOluQT2AAcpYn-92" value="timestamp" style="ellipse;whiteSpace=wrap;html=1;" parent="1" vertex="1">
          <mxGeometry x="312" y="366" width="60" height="36" as="geometry" />
        </mxCell>
        <mxCell id="XG8kmVSxOluQT2AAcpYn-93" value="" style="endArrow=none;html=1;rounded=0;entryX=0;entryY=1;entryDx=0;entryDy=0;exitX=1;exitY=0.5;exitDx=0;exitDy=0;" parent="1" source="XG8kmVSxOluQT2AAcpYn-92" target="XG8kmVSxOluQT2AAcpYn-12" edge="1">
          <mxGeometry width="50" height="50" relative="1" as="geometry">
            <mxPoint x="402" y="419" as="sourcePoint" />
            <mxPoint x="452" y="369" as="targetPoint" />
          </mxGeometry>
        </mxCell>
        <mxCell id="XG8kmVSxOluQT2AAcpYn-94" value="" style="endArrow=none;html=1;rounded=0;entryX=0;entryY=1;entryDx=0;entryDy=0;exitX=1;exitY=0.5;exitDx=0;exitDy=0;" parent="1" source="XG8kmVSxOluQT2AAcpYn-91" target="XG8kmVSxOluQT2AAcpYn-12" edge="1">
          <mxGeometry width="50" height="50" relative="1" as="geometry">
            <mxPoint x="402" y="419" as="sourcePoint" />
            <mxPoint x="452" y="369" as="targetPoint" />
          </mxGeometry>
        </mxCell>
        <mxCell id="XG8kmVSxOluQT2AAcpYn-95" value="" style="endArrow=none;html=1;rounded=0;entryX=0;entryY=1;entryDx=0;entryDy=0;exitX=1;exitY=0.5;exitDx=0;exitDy=0;" parent="1" source="XG8kmVSxOluQT2AAcpYn-90" target="XG8kmVSxOluQT2AAcpYn-12" edge="1">
          <mxGeometry width="50" height="50" relative="1" as="geometry">
            <mxPoint x="402" y="419" as="sourcePoint" />
            <mxPoint x="452" y="369" as="targetPoint" />
          </mxGeometry>
        </mxCell>
        <mxCell id="XG8kmVSxOluQT2AAcpYn-96" value="size" style="ellipse;whiteSpace=wrap;html=1;" parent="1" vertex="1">
          <mxGeometry x="657" y="531" width="60" height="36" as="geometry" />
        </mxCell>
        <mxCell id="XG8kmVSxOluQT2AAcpYn-98" value="style" style="ellipse;whiteSpace=wrap;html=1;" parent="1" vertex="1">
          <mxGeometry x="657" y="582" width="60" height="36" as="geometry" />
        </mxCell>
        <mxCell id="XG8kmVSxOluQT2AAcpYn-99" value="" style="endArrow=none;html=1;rounded=0;entryX=0;entryY=0.5;entryDx=0;entryDy=0;exitX=1;exitY=0.5;exitDx=0;exitDy=0;" parent="1" source="XG8kmVSxOluQT2AAcpYn-14" target="XG8kmVSxOluQT2AAcpYn-81" edge="1">
          <mxGeometry width="50" height="50" relative="1" as="geometry">
            <mxPoint x="495" y="287" as="sourcePoint" />
            <mxPoint x="545" y="237" as="targetPoint" />
          </mxGeometry>
        </mxCell>
        <mxCell id="XG8kmVSxOluQT2AAcpYn-100" value="" style="endArrow=none;html=1;rounded=0;entryX=0;entryY=0.5;entryDx=0;entryDy=0;exitX=1;exitY=0.5;exitDx=0;exitDy=0;" parent="1" source="XG8kmVSxOluQT2AAcpYn-14" target="XG8kmVSxOluQT2AAcpYn-82" edge="1">
          <mxGeometry width="50" height="50" relative="1" as="geometry">
            <mxPoint x="495" y="287" as="sourcePoint" />
            <mxPoint x="545" y="237" as="targetPoint" />
          </mxGeometry>
        </mxCell>
        <mxCell id="XG8kmVSxOluQT2AAcpYn-102" value="quantity" style="ellipse;whiteSpace=wrap;html=1;" parent="1" vertex="1">
          <mxGeometry x="578.5" y="411" width="60" height="36" as="geometry" />
        </mxCell>
        <mxCell id="XG8kmVSxOluQT2AAcpYn-104" value="product_id" style="ellipse;whiteSpace=wrap;html=1;" parent="1" vertex="1">
          <mxGeometry x="576" y="366" width="63" height="39" as="geometry" />
        </mxCell>
        <mxCell id="XG8kmVSxOluQT2AAcpYn-105" value="" style="endArrow=none;html=1;rounded=0;exitX=1;exitY=0.5;exitDx=0;exitDy=0;entryX=0;entryY=0.5;entryDx=0;entryDy=0;" parent="1" source="XG8kmVSxOluQT2AAcpYn-19" target="XG8kmVSxOluQT2AAcpYn-96" edge="1">
          <mxGeometry width="50" height="50" relative="1" as="geometry">
            <mxPoint x="636" y="554" as="sourcePoint" />
            <mxPoint x="686" y="504" as="targetPoint" />
          </mxGeometry>
        </mxCell>
        <mxCell id="XG8kmVSxOluQT2AAcpYn-106" value="" style="endArrow=none;html=1;rounded=0;entryX=0;entryY=0.5;entryDx=0;entryDy=0;exitX=1;exitY=0.5;exitDx=0;exitDy=0;" parent="1" source="XG8kmVSxOluQT2AAcpYn-19" target="XG8kmVSxOluQT2AAcpYn-98" edge="1">
          <mxGeometry width="50" height="50" relative="1" as="geometry">
            <mxPoint x="603" y="623" as="sourcePoint" />
            <mxPoint x="653" y="573" as="targetPoint" />
          </mxGeometry>
        </mxCell>
      </root>
    </mxGraphModel>
  </diagram>
</mxfile>
